<svg
		id="background"
		xmlns="http://www.w3.org/2000/svg"
		xmlns:xlink="http://www.w3.org/1999/xlink"
		width="1200"
		height="1190"
		viewBox="0 0 1200 1190"
    preserveAspectRatio="none"><polygon id="triangle" points="50 15, 100 100, 0 100" transform="translate(-50 -15)" /><polygon id="inverted-triangle" points="0 0, 100 0, 50 85" transform="translate(-50 0)"/><use xlink:href="#triangle" fill="#F4F5F5" transform="translate(0 0)" /><use xlink:href="#inverted-triangle" fill="#B7BBBE" transform="translate(50 0)" /><use xlink:href="#triangle" fill="#BCC0C2" transform="translate(100 0)" /><use xlink:href="#inverted-triangle" fill="#FFFFFF" transform="translate(150 0)" /><use xlink:href="#triangle" fill="#FAFAFA" transform="translate(200 0)" /><use xlink:href="#inverted-triangle" fill="#DFE1E2" transform="translate(250 0)" /><use xlink:href="#triangle" fill="#DCDEE0" transform="translate(300 0)" /><use xlink:href="#inverted-triangle" fill="#F7F7F8" transform="translate(350 0)" /><use xlink:href="#triangle" fill="#E4E6E7" transform="translate(400 0)" /><use xlink:href="#inverted-triangle" fill="#ECEDEE" transform="translate(450 0)" /><use xlink:href="#triangle" fill="#E7E8E9" transform="translate(500 0)" /><use xlink:href="#inverted-triangle" fill="#E2E3E4" transform="translate(550 0)" /><use xlink:href="#triangle" fill="#C1C5C7" transform="translate(600 0)" /><use xlink:href="#inverted-triangle" fill="#EAEBEC" transform="translate(650 0)" /><use xlink:href="#triangle" fill="#E7E8E9" transform="translate(700 0)" /><use xlink:href="#inverted-triangle" fill="#DFE1E2" transform="translate(750 0)" /><use xlink:href="#triangle" fill="#CFD2D3" transform="translate(800 0)" /><use xlink:href="#inverted-triangle" fill="#CFD2D3" transform="translate(850 0)" /><use xlink:href="#triangle" fill="#DADCDD" transform="translate(900 0)" /><use xlink:href="#inverted-triangle" fill="#A1A7AA" transform="translate(950 0)" /><use xlink:href="#triangle" fill="#D7D9DB" transform="translate(1000 0)" /><use xlink:href="#inverted-triangle" fill="#FAFAFA" transform="translate(1050 0)" /><use xlink:href="#triangle" fill="#A9AFB1" transform="translate(1100 0)" /><use xlink:href="#inverted-triangle" fill="#CFD2D3" transform="translate(1150 0)" /><use xlink:href="#triangle" fill="#F4F5F5" transform="translate(1200 0)" /><use xlink:href="#inverted-triangle" fill="#EAEBEC" transform="translate(0 85)" /><use xlink:href="#triangle" fill="#ECEDEE" transform="translate(50 85)" /><use xlink:href="#inverted-triangle" fill="#F7F7F8" transform="translate(100 85)" /><use xlink:href="#triangle" fill="#FFFFFF" transform="translate(150 85)" /><use xlink:href="#inverted-triangle" fill="#E2E3E4" transform="translate(200 85)" /><use xlink:href="#triangle" fill="#D7D9DB" transform="translate(250 85)" /><use xlink:href="#inverted-triangle" fill="#F7F7F8" transform="translate(300 85)" /><use xlink:href="#triangle" fill="#A9AFB1" transform="translate(350 85)" /><use xlink:href="#inverted-triangle" fill="#878E92" transform="translate(400 85)" /><use xlink:href="#triangle" fill="#DADCDD" transform="translate(450 85)" /><use xlink:href="#inverted-triangle" fill="#B1B6B9" transform="translate(500 85)" /><use xlink:href="#triangle" fill="#FCFCFD" transform="translate(550 85)" /><use xlink:href="#inverted-triangle" fill="#ECEDEE" transform="translate(600 85)" /><use xlink:href="#triangle" fill="#C4C8CA" transform="translate(650 85)" /><use xlink:href="#inverted-triangle" fill="#F2F2F3" transform="translate(700 85)" /><use xlink:href="#triangle" fill="#BFC3C5" transform="translate(750 85)" /><use xlink:href="#inverted-triangle" fill="#DADCDD" transform="translate(800 85)" /><use xlink:href="#triangle" fill="#DFE1E2" transform="translate(850 85)" /><use xlink:href="#inverted-triangle" fill="#EFF0F0" transform="translate(900 85)" /><use xlink:href="#triangle" fill="#F2F2F3" transform="translate(950 85)" /><use xlink:href="#inverted-triangle" fill="#DADCDD" transform="translate(1000 85)" /><use xlink:href="#triangle" fill="#FCFCFD" transform="translate(1050 85)" /><use xlink:href="#inverted-triangle" fill="#E2E3E4" transform="translate(1100 85)" /><use xlink:href="#triangle" fill="#CCCFD1" transform="translate(1150 85)" /><use xlink:href="#inverted-triangle" fill="#EAEBEC" transform="translate(1200 85)" /><use xlink:href="#triangle" fill="#F2F2F3" transform="translate(0 170)" /><use xlink:href="#inverted-triangle" fill="#F2F2F3" transform="translate(50 170)" /><use xlink:href="#triangle" fill="#FFFFFF" transform="translate(100 170)" /><use xlink:href="#inverted-triangle" fill="#E4E6E7" transform="translate(150 170)" /><use xlink:href="#triangle" fill="#EAEBEC" transform="translate(200 170)" /><use xlink:href="#inverted-triangle" fill="#C9CDCF" transform="translate(250 170)" /><use xlink:href="#triangle" fill="#C1C5C7" transform="translate(300 170)" /><use xlink:href="#inverted-triangle" fill="#B1B6B9" transform="translate(350 170)" /><use xlink:href="#triangle" fill="#F7F7F8" transform="translate(400 170)" /><use xlink:href="#inverted-triangle" fill="#A4AAAD" transform="translate(450 170)" /><use xlink:href="#triangle" fill="#CFD2D3" transform="translate(500 170)" /><use xlink:href="#inverted-triangle" fill="#ECEDEE" transform="translate(550 170)" /><use xlink:href="#triangle" fill="#EAEBEC" transform="translate(600 170)" /><use xlink:href="#inverted-triangle" fill="#EAEBEC" transform="translate(650 170)" /><use xlink:href="#triangle" fill="#DFE1E2" transform="translate(700 170)" /><use xlink:href="#inverted-triangle" fill="#A7ACAF" transform="translate(750 170)" /><use xlink:href="#triangle" fill="#DADCDD" transform="translate(800 170)" /><use xlink:href="#inverted-triangle" fill="#EAEBEC" transform="translate(850 170)" /><use xlink:href="#triangle" fill="#F2F2F3" transform="translate(900 170)" /><use xlink:href="#inverted-triangle" fill="#FCFCFD" transform="translate(950 170)" /><use xlink:href="#triangle" fill="#EFF0F0" transform="translate(1000 170)" /><use xlink:href="#inverted-triangle" fill="#DFE1E2" transform="translate(1050 170)" /><use xlink:href="#triangle" fill="#B7BBBE" transform="translate(1100 170)" /><use xlink:href="#inverted-triangle" fill="#FCFCFD" transform="translate(1150 170)" /><use xlink:href="#triangle" fill="#F2F2F3" transform="translate(1200 170)" /><use xlink:href="#inverted-triangle" fill="#EAEBEC" transform="translate(0 255)" /><use xlink:href="#triangle" fill="#D7D9DB" transform="translate(50 255)" /><use xlink:href="#inverted-triangle" fill="#B1B6B9" transform="translate(100 255)" /><use xlink:href="#triangle" fill="#ECEDEE" transform="translate(150 255)" /><use xlink:href="#inverted-triangle" fill="#E7E8E9" transform="translate(200 255)" /><use xlink:href="#triangle" fill="#F4F5F5" transform="translate(250 255)" /><use xlink:href="#inverted-triangle" fill="#F4F5F5" transform="translate(300 255)" /><use xlink:href="#triangle" fill="#E4E6E7" transform="translate(350 255)" /><use xlink:href="#inverted-triangle" fill="#D1D4D6" transform="translate(400 255)" /><use xlink:href="#triangle" fill="#ECEDEE" transform="translate(450 255)" /><use xlink:href="#inverted-triangle" fill="#DADCDD" transform="translate(500 255)" /><use xlink:href="#triangle" fill="#FCFCFD" transform="translate(550 255)" /><use xlink:href="#inverted-triangle" fill="#CFD2D3" transform="translate(600 255)" /><use xlink:href="#triangle" fill="#ECEDEE" transform="translate(650 255)" /><use xlink:href="#inverted-triangle" fill="#DFE1E2" transform="translate(700 255)" /><use xlink:href="#triangle" fill="#ECEDEE" transform="translate(750 255)" /><use xlink:href="#inverted-triangle" fill="#EFF0F0" transform="translate(800 255)" /><use xlink:href="#triangle" fill="#F2F2F3" transform="translate(850 255)" /><use xlink:href="#inverted-triangle" fill="#EFF0F0" transform="translate(900 255)" /><use xlink:href="#triangle" fill="#C7CACC" transform="translate(950 255)" /><use xlink:href="#inverted-triangle" fill="#D7D9DB" transform="translate(1000 255)" /><use xlink:href="#triangle" fill="#FCFCFD" transform="translate(1050 255)" /><use xlink:href="#inverted-triangle" fill="#FFFFFF" transform="translate(1100 255)" /><use xlink:href="#triangle" fill="#EAEBEC" transform="translate(1150 255)" /><use xlink:href="#inverted-triangle" fill="#EAEBEC" transform="translate(1200 255)" /><use xlink:href="#triangle" fill="#D7D9DB" transform="translate(0 340)" /><use xlink:href="#inverted-triangle" fill="#E7E8E9" transform="translate(50 340)" /><use xlink:href="#triangle" fill="#ECEDEE" transform="translate(100 340)" /><use xlink:href="#inverted-triangle" fill="#F7F7F8" transform="translate(150 340)" /><use xlink:href="#triangle" fill="#DCDEE0" transform="translate(200 340)" /><use xlink:href="#inverted-triangle" fill="#A7ACAF" transform="translate(250 340)" /><use xlink:href="#triangle" fill="#ECEDEE" transform="translate(300 340)" /><use xlink:href="#inverted-triangle" fill="#D7D9DB" transform="translate(350 340)" /><use xlink:href="#triangle" fill="#D7D9DB" transform="translate(400 340)" /><use xlink:href="#inverted-triangle" fill="#FAFAFA" transform="translate(450 340)" /><use xlink:href="#triangle" fill="#ECEDEE" transform="translate(500 340)" /><use xlink:href="#inverted-triangle" fill="#DFE1E2" transform="translate(550 340)" /><use xlink:href="#triangle" fill="#F7F7F8" transform="translate(600 340)" /><use xlink:href="#inverted-triangle" fill="#ECEDEE" transform="translate(650 340)" /><use xlink:href="#triangle" fill="#F2F2F3" transform="translate(700 340)" /><use xlink:href="#inverted-triangle" fill="#DFE1E2" transform="translate(750 340)" /><use xlink:href="#triangle" fill="#D7D9DB" transform="translate(800 340)" /><use xlink:href="#inverted-triangle" fill="#A7ACAF" transform="translate(850 340)" /><use xlink:href="#triangle" fill="#CFD2D3" transform="translate(900 340)" /><use xlink:href="#inverted-triangle" fill="#DADCDD" transform="translate(950 340)" /><use xlink:href="#triangle" fill="#E4E6E7" transform="translate(1000 340)" /><use xlink:href="#inverted-triangle" fill="#EFF0F0" transform="translate(1050 340)" /><use xlink:href="#triangle" fill="#FFFFFF" transform="translate(1100 340)" /><use xlink:href="#inverted-triangle" fill="#FCFCFD" transform="translate(1150 340)" /><use xlink:href="#triangle" fill="#D7D9DB" transform="translate(1200 340)" /><use xlink:href="#inverted-triangle" fill="#F7F7F8" transform="translate(0 425)" /><use xlink:href="#triangle" fill="#E4E6E7" transform="translate(50 425)" /><use xlink:href="#inverted-triangle" fill="#F2F2F3" transform="translate(100 425)" /><use xlink:href="#triangle" fill="#C1C5C7" transform="translate(150 425)" /><use xlink:href="#inverted-triangle" fill="#EAEBEC" transform="translate(200 425)" /><use xlink:href="#triangle" fill="#DCDEE0" transform="translate(250 425)" /><use xlink:href="#inverted-triangle" fill="#E2E3E4" transform="translate(300 425)" /><use xlink:href="#triangle" fill="#BFC3C5" transform="translate(350 425)" /><use xlink:href="#inverted-triangle" fill="#AFB4B6" transform="translate(400 425)" /><use xlink:href="#triangle" fill="#EFF0F0" transform="translate(450 425)" /><use xlink:href="#inverted-triangle" fill="#E7E8E9" transform="translate(500 425)" /><use xlink:href="#triangle" fill="#DADCDD" transform="translate(550 425)" /><use xlink:href="#inverted-triangle" fill="#FFFFFF" transform="translate(600 425)" /><use xlink:href="#triangle" fill="#E2E3E4" transform="translate(650 425)" /><use xlink:href="#inverted-triangle" fill="#EAEBEC" transform="translate(700 425)" /><use xlink:href="#triangle" fill="#FFFFFF" transform="translate(750 425)" /><use xlink:href="#inverted-triangle" fill="#D1D4D6" transform="translate(800 425)" /><use xlink:href="#triangle" fill="#FAFAFA" transform="translate(850 425)" /><use xlink:href="#inverted-triangle" fill="#FAFAFA" transform="translate(900 425)" /><use xlink:href="#triangle" fill="#DCDEE0" transform="translate(950 425)" /><use xlink:href="#inverted-triangle" fill="#EFF0F0" transform="translate(1000 425)" /><use xlink:href="#triangle" fill="#E2E3E4" transform="translate(1050 425)" /><use xlink:href="#inverted-triangle" fill="#EFF0F0" transform="translate(1100 425)" /><use xlink:href="#triangle" fill="#BCC0C2" transform="translate(1150 425)" /><use xlink:href="#inverted-triangle" fill="#F7F7F8" transform="translate(1200 425)" /><use xlink:href="#triangle" fill="#EFF0F0" transform="translate(0 510)" /><use xlink:href="#inverted-triangle" fill="#DCDEE0" transform="translate(50 510)" /><use xlink:href="#triangle" fill="#FCFCFD" transform="translate(100 510)" /><use xlink:href="#inverted-triangle" fill="#E7E8E9" transform="translate(150 510)" /><use xlink:href="#triangle" fill="#EAEBEC" transform="translate(200 510)" /><use xlink:href="#inverted-triangle" fill="#CFD2D3" transform="translate(250 510)" /><use xlink:href="#triangle" fill="#F7F7F8" transform="translate(300 510)" /><use xlink:href="#inverted-triangle" fill="#FAFAFA" transform="translate(350 510)" /><use xlink:href="#triangle" fill="#F2F2F3" transform="translate(400 510)" /><use xlink:href="#inverted-triangle" fill="#D7D9DB" transform="translate(450 510)" /><use xlink:href="#triangle" fill="#DADCDD" transform="translate(500 510)" /><use xlink:href="#inverted-triangle" fill="#DCDEE0" transform="translate(550 510)" /><use xlink:href="#triangle" fill="#D7D9DB" transform="translate(600 510)" /><use xlink:href="#inverted-triangle" fill="#F2F2F3" transform="translate(650 510)" /><use xlink:href="#triangle" fill="#EFF0F0" transform="translate(700 510)" /><use xlink:href="#inverted-triangle" fill="#F7F7F8" transform="translate(750 510)" /><use xlink:href="#triangle" fill="#E7E8E9" transform="translate(800 510)" /><use xlink:href="#inverted-triangle" fill="#EFF0F0" transform="translate(850 510)" /><use xlink:href="#triangle" fill="#F7F7F8" transform="translate(900 510)" /><use xlink:href="#inverted-triangle" fill="#E2E3E4" transform="translate(950 510)" /><use xlink:href="#triangle" fill="#E4E6E7" transform="translate(1000 510)" /><use xlink:href="#inverted-triangle" fill="#DADCDD" transform="translate(1050 510)" /><use xlink:href="#triangle" fill="#EAEBEC" transform="translate(1100 510)" /><use xlink:href="#inverted-triangle" fill="#FAFAFA" transform="translate(1150 510)" /><use xlink:href="#triangle" fill="#EFF0F0" transform="translate(1200 510)" /><use xlink:href="#inverted-triangle" fill="#ECEDEE" transform="translate(0 595)" /><use xlink:href="#triangle" fill="#CCCFD1" transform="translate(50 595)" /><use xlink:href="#inverted-triangle" fill="#DFE1E2" transform="translate(100 595)" /><use xlink:href="#triangle" fill="#D7D9DB" transform="translate(150 595)" /><use xlink:href="#inverted-triangle" fill="#EAEBEC" transform="translate(200 595)" /><use xlink:href="#triangle" fill="#E4E6E7" transform="translate(250 595)" /><use xlink:href="#inverted-triangle" fill="#D7D9DB" transform="translate(300 595)" /><use xlink:href="#triangle" fill="#E2E3E4" transform="translate(350 595)" /><use xlink:href="#inverted-triangle" fill="#ECEDEE" transform="translate(400 595)" /><use xlink:href="#triangle" fill="#DFE1E2" transform="translate(450 595)" /><use xlink:href="#inverted-triangle" fill="#C9CDCF" transform="translate(500 595)" /><use xlink:href="#triangle" fill="#FAFAFA" transform="translate(550 595)" /><use xlink:href="#inverted-triangle" fill="#EFF0F0" transform="translate(600 595)" /><use xlink:href="#triangle" fill="#A9AFB1" transform="translate(650 595)" /><use xlink:href="#inverted-triangle" fill="#F7F7F8" transform="translate(700 595)" /><use xlink:href="#triangle" fill="#FAFAFA" transform="translate(750 595)" /><use xlink:href="#inverted-triangle" fill="#E4E6E7" transform="translate(800 595)" /><use xlink:href="#triangle" fill="#ECEDEE" transform="translate(850 595)" /><use xlink:href="#inverted-triangle" fill="#FCFCFD" transform="translate(900 595)" /><use xlink:href="#triangle" fill="#F7F7F8" transform="translate(950 595)" /><use xlink:href="#inverted-triangle" fill="#DFE1E2" transform="translate(1000 595)" /><use xlink:href="#triangle" fill="#F7F7F8" transform="translate(1050 595)" /><use xlink:href="#inverted-triangle" fill="#E2E3E4" transform="translate(1100 595)" /><use xlink:href="#triangle" fill="#FFFFFF" transform="translate(1150 595)" /><use xlink:href="#inverted-triangle" fill="#ECEDEE" transform="translate(1200 595)" /><use xlink:href="#triangle" fill="#E2E3E4" transform="translate(0 680)" /><use xlink:href="#inverted-triangle" fill="#BCC0C2" transform="translate(50 680)" /><use xlink:href="#triangle" fill="#DFE1E2" transform="translate(100 680)" /><use xlink:href="#inverted-triangle" fill="#E7E8E9" transform="translate(150 680)" /><use xlink:href="#triangle" fill="#D7D9DB" transform="translate(200 680)" /><use xlink:href="#inverted-triangle" fill="#D7D9DB" transform="translate(250 680)" /><use xlink:href="#triangle" fill="#E7E8E9" transform="translate(300 680)" /><use xlink:href="#inverted-triangle" fill="#BFC3C5" transform="translate(350 680)" /><use xlink:href="#triangle" fill="#D7D9DB" transform="translate(400 680)" /><use xlink:href="#inverted-triangle" fill="#EAEBEC" transform="translate(450 680)" /><use xlink:href="#triangle" fill="#FFFFFF" transform="translate(500 680)" /><use xlink:href="#inverted-triangle" fill="#DADCDD" transform="translate(550 680)" /><use xlink:href="#triangle" fill="#EFF0F0" transform="translate(600 680)" /><use xlink:href="#inverted-triangle" fill="#EFF0F0" transform="translate(650 680)" /><use xlink:href="#triangle" fill="#F4F5F5" transform="translate(700 680)" /><use xlink:href="#inverted-triangle" fill="#C7CACC" transform="translate(750 680)" /><use xlink:href="#triangle" fill="#D1D4D6" transform="translate(800 680)" /><use xlink:href="#inverted-triangle" fill="#C1C5C7" transform="translate(850 680)" /><use xlink:href="#triangle" fill="#FFFFFF" transform="translate(900 680)" /><use xlink:href="#inverted-triangle" fill="#F4F5F5" transform="translate(950 680)" /><use xlink:href="#triangle" fill="#DADCDD" transform="translate(1000 680)" /><use xlink:href="#inverted-triangle" fill="#E4E6E7" transform="translate(1050 680)" /><use xlink:href="#triangle" fill="#EFF0F0" transform="translate(1100 680)" /><use xlink:href="#inverted-triangle" fill="#DADCDD" transform="translate(1150 680)" /><use xlink:href="#triangle" fill="#E2E3E4" transform="translate(1200 680)" /><use xlink:href="#inverted-triangle" fill="#DFE1E2" transform="translate(0 765)" /><use xlink:href="#triangle" fill="#BCC0C2" transform="translate(50 765)" /><use xlink:href="#inverted-triangle" fill="#ECEDEE" transform="translate(100 765)" /><use xlink:href="#triangle" fill="#E7E8E9" transform="translate(150 765)" /><use xlink:href="#inverted-triangle" fill="#DADCDD" transform="translate(200 765)" /><use xlink:href="#triangle" fill="#F7F7F8" transform="translate(250 765)" /><use xlink:href="#inverted-triangle" fill="#F7F7F8" transform="translate(300 765)" /><use xlink:href="#triangle" fill="#D7D9DB" transform="translate(350 765)" /><use xlink:href="#inverted-triangle" fill="#F4F5F5" transform="translate(400 765)" /><use xlink:href="#triangle" fill="#DFE1E2" transform="translate(450 765)" /><use xlink:href="#inverted-triangle" fill="#F7F7F8" transform="translate(500 765)" /><use xlink:href="#triangle" fill="#E4E6E7" transform="translate(550 765)" /><use xlink:href="#inverted-triangle" fill="#C7CACC" transform="translate(600 765)" /><use xlink:href="#triangle" fill="#ECEDEE" transform="translate(650 765)" /><use xlink:href="#inverted-triangle" fill="#ECEDEE" transform="translate(700 765)" /><use xlink:href="#triangle" fill="#D7D9DB" transform="translate(750 765)" /><use xlink:href="#inverted-triangle" fill="#ECEDEE" transform="translate(800 765)" /><use xlink:href="#triangle" fill="#E7E8E9" transform="translate(850 765)" /><use xlink:href="#inverted-triangle" fill="#D1D4D6" transform="translate(900 765)" /><use xlink:href="#triangle" fill="#ECEDEE" transform="translate(950 765)" /><use xlink:href="#inverted-triangle" fill="#E4E6E7" transform="translate(1000 765)" /><use xlink:href="#triangle" fill="#EFF0F0" transform="translate(1050 765)" /><use xlink:href="#inverted-triangle" fill="#C9CDCF" transform="translate(1100 765)" /><use xlink:href="#triangle" fill="#E2E3E4" transform="translate(1150 765)" /><use xlink:href="#inverted-triangle" fill="#DFE1E2" transform="translate(1200 765)" /><use xlink:href="#triangle" fill="#E4E6E7" transform="translate(0 850)" /><use xlink:href="#inverted-triangle" fill="#A4AAAD" transform="translate(50 850)" /><use xlink:href="#triangle" fill="#FAFAFA" transform="translate(100 850)" /><use xlink:href="#inverted-triangle" fill="#F4F5F5" transform="translate(150 850)" /><use xlink:href="#triangle" fill="#FFFFFF" transform="translate(200 850)" /><use xlink:href="#inverted-triangle" fill="#DCDEE0" transform="translate(250 850)" /><use xlink:href="#triangle" fill="#D7D9DB" transform="translate(300 850)" /><use xlink:href="#inverted-triangle" fill="#ECEDEE" transform="translate(350 850)" /><use xlink:href="#triangle" fill="#CCCFD1" transform="translate(400 850)" /><use xlink:href="#inverted-triangle" fill="#FCFCFD" transform="translate(450 850)" /><use xlink:href="#triangle" fill="#F7F7F8" transform="translate(500 850)" /><use xlink:href="#inverted-triangle" fill="#EFF0F0" transform="translate(550 850)" /><use xlink:href="#triangle" fill="#F4F5F5" transform="translate(600 850)" /><use xlink:href="#inverted-triangle" fill="#DCDEE0" transform="translate(650 850)" /><use xlink:href="#triangle" fill="#E2E3E4" transform="translate(700 850)" /><use xlink:href="#inverted-triangle" fill="#ECEDEE" transform="translate(750 850)" /><use xlink:href="#triangle" fill="#F2F2F3" transform="translate(800 850)" /><use xlink:href="#inverted-triangle" fill="#DCDEE0" transform="translate(850 850)" /><use xlink:href="#triangle" fill="#FAFAFA" transform="translate(900 850)" /><use xlink:href="#inverted-triangle" fill="#E4E6E7" transform="translate(950 850)" /><use xlink:href="#triangle" fill="#E4E6E7" transform="translate(1000 850)" /><use xlink:href="#inverted-triangle" fill="#DADCDD" transform="translate(1050 850)" /><use xlink:href="#triangle" fill="#FFFFFF" transform="translate(1100 850)" /><use xlink:href="#inverted-triangle" fill="#DADCDD" transform="translate(1150 850)" /><use xlink:href="#triangle" fill="#E4E6E7" transform="translate(1200 850)" /><use xlink:href="#inverted-triangle" fill="#C4C8CA" transform="translate(0 935)" /><use xlink:href="#triangle" fill="#DCDEE0" transform="translate(50 935)" /><use xlink:href="#inverted-triangle" fill="#EFF0F0" transform="translate(100 935)" /><use xlink:href="#triangle" fill="#DFE1E2" transform="translate(150 935)" /><use xlink:href="#inverted-triangle" fill="#F7F7F8" transform="translate(200 935)" /><use xlink:href="#triangle" fill="#F4F5F5" transform="translate(250 935)" /><use xlink:href="#inverted-triangle" fill="#D7D9DB" transform="translate(300 935)" /><use xlink:href="#triangle" fill="#F2F2F3" transform="translate(350 935)" /><use xlink:href="#inverted-triangle" fill="#FCFCFD" transform="translate(400 935)" /><use xlink:href="#triangle" fill="#E4E6E7" transform="translate(450 935)" /><use xlink:href="#inverted-triangle" fill="#ECEDEE" transform="translate(500 935)" /><use xlink:href="#triangle" fill="#ECEDEE" transform="translate(550 935)" /><use xlink:href="#inverted-triangle" fill="#EAEBEC" transform="translate(600 935)" /><use xlink:href="#triangle" fill="#979DA1" transform="translate(650 935)" /><use xlink:href="#inverted-triangle" fill="#BCC0C2" transform="translate(700 935)" /><use xlink:href="#triangle" fill="#DFE1E2" transform="translate(750 935)" /><use xlink:href="#inverted-triangle" fill="#F7F7F8" transform="translate(800 935)" /><use xlink:href="#triangle" fill="#FFFFFF" transform="translate(850 935)" /><use xlink:href="#inverted-triangle" fill="#FAFAFA" transform="translate(900 935)" /><use xlink:href="#triangle" fill="#EAEBEC" transform="translate(950 935)" /><use xlink:href="#inverted-triangle" fill="#ECEDEE" transform="translate(1000 935)" /><use xlink:href="#triangle" fill="#E7E8E9" transform="translate(1050 935)" /><use xlink:href="#inverted-triangle" fill="#FFFFFF" transform="translate(1100 935)" /><use xlink:href="#triangle" fill="#FFFFFF" transform="translate(1150 935)" /><use xlink:href="#inverted-triangle" fill="#C4C8CA" transform="translate(1200 935)" /><use xlink:href="#triangle" fill="#ECEDEE" transform="translate(0 1020)" /><use xlink:href="#inverted-triangle" fill="#FCFCFD" transform="translate(50 1020)" /><use xlink:href="#triangle" fill="#D7D9DB" transform="translate(100 1020)" /><use xlink:href="#inverted-triangle" fill="#E4E6E7" transform="translate(150 1020)" /><use xlink:href="#triangle" fill="#EFF0F0" transform="translate(200 1020)" /><use xlink:href="#inverted-triangle" fill="#ECEDEE" transform="translate(250 1020)" /><use xlink:href="#triangle" fill="#F7F7F8" transform="translate(300 1020)" /><use xlink:href="#inverted-triangle" fill="#EFF0F0" transform="translate(350 1020)" /><use xlink:href="#triangle" fill="#E4E6E7" transform="translate(400 1020)" /><use xlink:href="#inverted-triangle" fill="#D7D9DB" transform="translate(450 1020)" /><use xlink:href="#triangle" fill="#D7D9DB" transform="translate(500 1020)" /><use xlink:href="#inverted-triangle" fill="#EAEBEC" transform="translate(550 1020)" /><use xlink:href="#triangle" fill="#E4E6E7" transform="translate(600 1020)" /><use xlink:href="#inverted-triangle" fill="#DFE1E2" transform="translate(650 1020)" /><use xlink:href="#triangle" fill="#E2E3E4" transform="translate(700 1020)" /><use xlink:href="#inverted-triangle" fill="#A9AFB1" transform="translate(750 1020)" /><use xlink:href="#triangle" fill="#E2E3E4" transform="translate(800 1020)" /><use xlink:href="#inverted-triangle" fill="#FFFFFF" transform="translate(850 1020)" /><use xlink:href="#triangle" fill="#EAEBEC" transform="translate(900 1020)" /><use xlink:href="#inverted-triangle" fill="#D4D7D8" transform="translate(950 1020)" /><use xlink:href="#triangle" fill="#D4D7D8" transform="translate(1000 1020)" /><use xlink:href="#inverted-triangle" fill="#FAFAFA" transform="translate(1050 1020)" /><use xlink:href="#triangle" fill="#FFFFFF" transform="translate(1100 1020)" /><use xlink:href="#inverted-triangle" fill="#E7E8E9" transform="translate(1150 1020)" /><use xlink:href="#triangle" fill="#ECEDEE" transform="translate(1200 1020)" /><use xlink:href="#inverted-triangle" fill="#ECEDEE" transform="translate(0 1105)" /><use xlink:href="#triangle" fill="#DFE1E2" transform="translate(50 1105)" /><use xlink:href="#inverted-triangle" fill="#F7F7F8" transform="translate(100 1105)" /><use xlink:href="#triangle" fill="#F2F2F3" transform="translate(150 1105)" /><use xlink:href="#inverted-triangle" fill="#FAFAFA" transform="translate(200 1105)" /><use xlink:href="#triangle" fill="#ECEDEE" transform="translate(250 1105)" /><use xlink:href="#inverted-triangle" fill="#ECEDEE" transform="translate(300 1105)" /><use xlink:href="#triangle" fill="#DADCDD" transform="translate(350 1105)" /><use xlink:href="#inverted-triangle" fill="#D7D9DB" transform="translate(400 1105)" /><use xlink:href="#triangle" fill="#D7D9DB" transform="translate(450 1105)" /><use xlink:href="#inverted-triangle" fill="#CFD2D3" transform="translate(500 1105)" /><use xlink:href="#triangle" fill="#EFF0F0" transform="translate(550 1105)" /><use xlink:href="#inverted-triangle" fill="#DADCDD" transform="translate(600 1105)" /><use xlink:href="#triangle" fill="#F4F5F5" transform="translate(650 1105)" /><use xlink:href="#inverted-triangle" fill="#FFFFFF" transform="translate(700 1105)" /><use xlink:href="#triangle" fill="#E4E6E7" transform="translate(750 1105)" /><use xlink:href="#inverted-triangle" fill="#F2F2F3" transform="translate(800 1105)" /><use xlink:href="#triangle" fill="#DCDEE0" transform="translate(850 1105)" /><use xlink:href="#inverted-triangle" fill="#E4E6E7" transform="translate(900 1105)" /><use xlink:href="#triangle" fill="#FAFAFA" transform="translate(950 1105)" /><use xlink:href="#inverted-triangle" fill="#E4E6E7" transform="translate(1000 1105)" /><use xlink:href="#triangle" fill="#C9CDCF" transform="translate(1050 1105)" /><use xlink:href="#inverted-triangle" fill="#ECEDEE" transform="translate(1100 1105)" /><use xlink:href="#triangle" fill="#E2E3E4" transform="translate(1150 1105)" /><use xlink:href="#inverted-triangle" fill="#ECEDEE" transform="translate(1200 1105)" /></svg>